<svg width="240" height="250" viewBox="0 0 240 250" fill="none" xmlns="http://www.w3.org/2000/svg">
<g filter="url(#filter0_d_148061_57)">
<path d="M119.878 109C120.024 109.013 120.169 109.029 120.312 109.057C120.717 109.137 121.121 109.221 121.524 109.308C121.928 109.395 122.33 109.486 122.732 109.58C123.134 109.674 123.534 109.772 123.934 109.873C124.335 109.974 124.734 110.079 125.132 110.188C125.53 110.296 125.927 110.408 126.323 110.524C126.719 110.639 127.115 110.758 127.509 110.881C127.903 111.003 128.296 111.129 128.687 111.259C129.079 111.388 129.47 111.521 129.859 111.658C130.249 111.794 130.637 111.934 131.024 112.078C131.411 112.221 131.796 112.368 132.181 112.518C132.565 112.668 132.948 112.822 133.33 112.979C133.711 113.136 134.092 113.296 134.47 113.46C134.849 113.624 135.226 113.791 135.602 113.962C135.978 114.132 136.352 114.306 136.725 114.483C137.097 114.66 137.469 114.841 137.838 115.025C138.207 115.208 138.575 115.395 138.942 115.586C139.308 115.776 139.672 115.969 140.035 116.166C140.398 116.363 140.759 116.563 141.118 116.766C141.477 116.969 141.834 117.176 142.19 117.385C142.545 117.595 142.899 117.808 143.25 118.023C143.602 118.239 143.952 118.458 144.3 118.68C144.647 118.902 144.993 119.128 145.337 119.356C145.681 119.584 146.023 119.815 146.362 120.05C146.702 120.284 147.04 120.521 147.375 120.761C147.711 121.002 148.044 121.245 148.375 121.491C148.706 121.737 149.035 121.986 149.362 122.239C149.689 122.491 150.013 122.746 150.335 123.003C150.657 123.261 150.977 123.522 151.295 123.785C151.612 124.049 151.928 124.315 152.24 124.584C152.553 124.854 152.864 125.126 153.172 125.4C153.48 125.675 153.785 125.952 154.088 126.232C154.391 126.512 154.692 126.795 154.99 127.081C157.335 129.35 159.564 131.748 161.414 134.441C162.491 134.916 163.662 135.215 164.784 135.57C166.277 136.057 167.762 136.566 169.24 137.096C170.227 137.446 171.25 137.767 172.198 138.213C172.372 148.013 172.249 157.832 172.215 167.633L172.272 181.542L180.761 181.541C178.151 185.282 175.377 188.907 172.768 192.649C174.317 194.709 175.742 196.867 177.236 198.966C178.27 200.419 179.373 201.825 180.424 203.266C176.616 203.214 172.807 203.194 168.998 203.206C167.333 206.95 164.204 211.157 161.699 214.416C154.911 223.252 145.06 230.681 134.82 235.014C132.825 235.858 130.754 236.528 128.697 237.204C126.211 238.02 122.536 239.131 120 239.462C119.217 239.421 118.401 239.192 117.635 239.029C114.579 238.363 111.573 237.521 108.617 236.502C108.232 236.368 107.848 236.23 107.466 236.089C107.083 235.948 106.702 235.803 106.322 235.655C105.942 235.507 105.564 235.355 105.187 235.2C104.809 235.044 104.434 234.885 104.06 234.723C103.686 234.561 103.313 234.395 102.942 234.225C102.571 234.056 102.202 233.883 101.834 233.706C101.467 233.53 101.101 233.35 100.737 233.167C100.372 232.984 100.01 232.797 99.6489 232.607C99.2881 232.417 98.9291 232.224 98.572 232.027C98.2149 231.83 97.8596 231.63 97.5062 231.427C97.1527 231.223 96.8013 231.016 96.4518 230.806C96.1023 230.596 95.7548 230.383 95.4093 230.166C95.0638 229.95 94.7203 229.73 94.3789 229.507C94.0375 229.284 93.6982 229.058 93.3611 228.828C93.0239 228.599 92.6889 228.366 92.3562 228.131C92.0234 227.895 91.6929 227.656 91.3647 227.414C91.0363 227.172 90.7104 226.928 90.3867 226.679C90.063 226.431 89.7417 226.18 89.4227 225.926C89.1037 225.672 88.7871 225.415 88.473 225.155C88.1589 224.895 87.8472 224.632 87.538 224.366C87.2288 224.101 86.9221 223.832 86.618 223.56C86.3138 223.289 86.0122 223.014 85.7131 222.737C85.4142 222.46 85.1179 222.18 84.8241 221.897C84.5304 221.614 84.2393 221.328 83.9509 221.04C83.6626 220.752 83.3769 220.461 83.094 220.167C82.8111 219.873 82.5309 219.577 82.2535 219.278C81.9761 218.979 81.7016 218.678 81.4299 218.373C81.1583 218.069 80.8895 217.763 80.6235 217.454C80.3576 217.144 80.0947 216.833 79.8346 216.519C79.5745 216.205 79.3174 215.888 79.0632 215.569C78.8091 215.25 78.558 214.929 78.3098 214.605C78.0618 214.282 77.8167 213.956 77.5748 213.628C75.0951 210.323 72.8943 206.886 71.1136 203.151C67.1473 203.13 63.1622 203.112 59.1972 203.187C61.6869 199.493 64.5378 196.036 67.0733 192.372C65.8841 190.713 64.6703 189.072 63.4317 187.45C61.9173 185.501 60.3149 183.56 59 181.471C61.824 181.523 64.6535 181.494 67.4783 181.497C67.5725 176.743 67.476 171.97 67.4733 167.214L67.477 138.344C70.114 137.487 72.7224 136.445 75.3095 135.448C76.2072 135.101 77.4145 134.787 78.2124 134.251C78.9901 133.728 79.7491 132.428 80.405 131.688C81.9161 129.983 83.4432 128.283 85.1035 126.721C94.2926 118.075 103.612 113.051 115.83 109.982C117.174 109.645 118.52 109.273 119.878 109Z" fill="#A8150D"/>
<path d="M79.4019 203.16C80.0308 203.138 80.6574 203.154 81.2862 203.17C82.8552 205.85 84.8611 208.344 86.9056 210.676C87.2836 211.111 87.6678 211.54 88.0583 211.964C88.4486 212.388 88.8449 212.806 89.2471 213.218C89.6495 213.63 90.0576 214.037 90.4716 214.438C90.8856 214.838 91.3052 215.233 91.7305 215.622C92.1557 216.011 92.5864 216.393 93.0226 216.77C93.4588 217.146 93.9003 217.516 94.3471 217.88C94.7939 218.243 95.2458 218.601 95.7028 218.952C96.1599 219.302 96.6218 219.647 97.0887 219.984C97.5556 220.322 98.0272 220.653 98.5036 220.977C98.98 221.301 99.4608 221.618 99.9462 221.928C100.432 222.239 100.921 222.542 101.416 222.838C101.91 223.135 102.408 223.424 102.91 223.706C103.413 223.988 103.919 224.263 104.429 224.53C104.94 224.798 105.454 225.058 105.971 225.311C106.489 225.563 107.01 225.809 107.535 226.047C108.06 226.285 108.588 226.515 109.119 226.738C110.713 227.397 112.349 227.925 113.985 228.468C115.534 228.983 117.076 229.51 118.656 229.923C119.05 230.026 119.445 230.126 119.84 230.224C123.404 229.25 126.949 228.224 130.376 226.831C130.931 226.603 131.482 226.367 132.03 226.123C132.577 225.878 133.121 225.625 133.661 225.364C134.201 225.103 134.737 224.833 135.268 224.555C135.8 224.278 136.327 223.992 136.85 223.698C137.373 223.405 137.891 223.103 138.405 222.793C138.919 222.484 139.427 222.166 139.931 221.841C140.435 221.516 140.934 221.183 141.428 220.842C141.922 220.502 142.41 220.154 142.893 219.799C143.376 219.443 143.854 219.08 144.326 218.71C144.798 218.34 145.264 217.963 145.724 217.579C146.185 217.194 146.639 216.803 147.088 216.405C147.536 216.007 147.978 215.602 148.415 215.19C148.851 214.778 149.28 214.36 149.704 213.935C150.127 213.51 150.543 213.078 150.954 212.641C151.364 212.203 151.767 211.759 152.163 211.309C152.56 210.859 152.949 210.403 153.332 209.941C154.363 208.686 155.325 207.379 156.216 206.021C156.761 205.191 157.275 204.191 157.908 203.441C158.018 203.311 158.093 203.279 158.257 203.254L160.26 203.276C160.228 203.338 160.196 203.4 160.162 203.461C159.114 205.301 157.735 207.097 156.473 208.798C156.081 209.32 155.681 209.836 155.273 210.346C154.865 210.855 154.448 211.358 154.024 211.854C153.599 212.349 153.166 212.838 152.726 213.32C152.285 213.801 151.837 214.276 151.381 214.743C150.925 215.21 150.461 215.669 149.99 216.121C149.519 216.573 149.041 217.017 148.555 217.454C148.069 217.89 147.577 218.318 147.077 218.739C146.578 219.159 146.072 219.571 145.559 219.975C145.046 220.379 144.526 220.774 144 221.161C143.475 221.547 142.942 221.926 142.404 222.295C141.866 222.665 141.322 223.025 140.772 223.377C140.222 223.729 139.667 224.071 139.105 224.405C138.544 224.739 137.978 225.063 137.406 225.378C136.835 225.693 136.258 225.999 135.676 226.295C135.094 226.592 134.508 226.879 133.917 227.156C133.326 227.433 132.731 227.7 132.131 227.958C128.158 229.668 124.026 230.936 119.853 232.051C117.623 231.451 115.368 230.805 113.168 230.103C101.589 226.409 90.5093 218.554 83.1633 208.884C81.7871 207.073 80.4491 205.184 79.4019 203.16Z" fill="#FEFEFE"/>
<path d="M83.4245 140.876C89.2671 131.255 98.5669 124.178 109.006 120.166C112.231 118.927 115.677 117.994 119.037 117.194C119.389 117.11 119.762 117.04 120.125 117.073C120.945 117.146 121.83 117.457 122.629 117.666C126.392 118.651 130.167 119.844 133.705 121.472C135.995 122.554 138.215 123.763 140.365 125.101C140.987 125.494 141.6 125.901 142.205 126.319C142.81 126.738 143.406 127.169 143.993 127.612C144.58 128.055 145.158 128.51 145.727 128.976C146.296 129.443 146.855 129.921 147.404 130.411C147.953 130.9 148.492 131.401 149.02 131.912C149.549 132.424 150.067 132.946 150.575 133.478C151.082 134.011 151.578 134.554 152.063 135.107C152.548 135.66 153.022 136.223 153.484 136.795C154.503 138.081 155.271 139.548 156.29 140.82C157.828 141.422 159.43 141.904 160.996 142.431C162.313 142.874 163.629 143.383 164.959 143.778L165.008 181.486L163.383 181.478C163.314 169.31 163.313 157.142 163.379 144.975C160.74 143.879 157.923 143.155 155.224 142.21C154.715 141.56 154.296 140.817 153.832 140.133C153.054 139.006 152.236 137.91 151.377 136.845C147.055 131.549 140.247 126.513 134.143 123.523C130.52 121.749 126.585 120.419 122.682 119.419C121.842 119.204 120.92 118.906 120.051 118.878C118.765 118.835 116.705 119.549 115.41 119.893C110.993 121.067 106.052 122.995 102.068 125.258C98.333 127.38 93.8671 130.811 90.8825 133.885C89.6045 135.224 88.414 136.636 87.3109 138.123C86.6798 138.973 84.9907 141.829 84.4366 142.249C83.7548 142.767 78.1148 144.556 76.769 145.016C76.8198 148.817 76.7636 152.626 76.7652 156.428L76.7737 181.5L75.1297 181.499C75.0519 176.133 75.1278 170.76 75.1341 165.393L75.0854 143.784C76.5632 143.313 78.0078 142.763 79.4709 142.251C80.7865 141.791 82.1209 141.368 83.4245 140.876Z" fill="#FEFEFE"/>
<path d="M104.879 203.156C111.048 203.076 117.226 203.128 123.397 203.124L130.921 203.14C132.309 203.146 133.718 203.103 135.102 203.185C136.049 203.32 137.067 203.265 138.024 203.276L143.029 203.319C148.092 203.338 153.198 203.435 158.257 203.254C158.093 203.279 158.018 203.311 157.908 203.441C157.275 204.191 156.761 205.191 156.216 206.021C155.325 207.379 154.363 208.686 153.332 209.941C152.949 210.403 152.56 210.859 152.163 211.309C151.767 211.759 151.364 212.203 150.954 212.641C150.543 213.078 150.127 213.51 149.704 213.935C149.28 214.36 148.851 214.778 148.414 215.19C147.978 215.602 147.536 216.007 147.088 216.405C146.639 216.803 146.185 217.194 145.724 217.579C145.264 217.963 144.798 218.34 144.326 218.71C143.854 219.08 143.376 219.443 142.893 219.799C142.41 220.154 141.922 220.502 141.428 220.842C140.934 221.183 140.435 221.516 139.931 221.841C139.427 222.166 138.919 222.484 138.405 222.793C137.891 223.103 137.373 223.405 136.85 223.698C136.327 223.992 135.8 224.278 135.268 224.555C134.737 224.833 134.201 225.103 133.661 225.364C133.121 225.625 132.577 225.878 132.03 226.123C131.482 226.367 130.931 226.603 130.376 226.831C126.949 228.224 123.404 229.25 119.84 230.224C119.445 230.126 119.05 230.026 118.656 229.923C117.076 229.51 115.534 228.983 113.985 228.468C112.349 227.925 110.713 227.397 109.119 226.738C108.588 226.515 108.06 226.285 107.535 226.047C107.01 225.809 106.489 225.563 105.971 225.311C105.454 225.058 104.94 224.798 104.429 224.53C103.919 224.263 103.413 223.988 102.91 223.706C102.408 223.424 101.91 223.135 101.416 222.838C100.921 222.542 100.432 222.239 99.9463 221.928C99.4609 221.618 98.9799 221.301 98.5036 220.977C98.0272 220.653 97.5556 220.322 97.0887 219.984C96.6218 219.647 96.1598 219.302 95.7028 218.952C95.2458 218.601 94.7939 218.243 94.3471 217.88C93.9003 217.516 93.4588 217.146 93.0226 216.77C92.5864 216.393 92.1556 216.011 91.7305 215.622C91.3051 215.233 90.8855 214.839 90.4716 214.438C90.0576 214.037 89.6494 213.63 89.2471 213.218C88.8449 212.806 88.4486 212.388 88.0582 211.964C87.6678 211.54 87.2836 211.111 86.9056 210.676C84.8611 208.344 82.8551 205.85 81.2861 203.17L96.6759 203.213C99.4002 203.214 102.159 203.295 104.879 203.156Z" fill="#E31C16"/>
<path d="M104.879 203.156C111.048 203.076 117.226 203.128 123.397 203.124L130.921 203.14C132.309 203.146 133.718 203.103 135.102 203.185C135.066 204.676 134.772 206.202 134.621 207.69C134.459 209.285 134.447 211.013 134.104 212.575C134.011 212.998 133.854 213.366 133.599 213.716C133.064 214.451 132.255 215.025 131.342 215.145C130.259 215.288 129.046 215.18 127.952 215.176L121.492 215.178L112.954 215.186C111.5 215.186 109.928 215.295 108.486 215.123C107.975 215.063 107.531 214.826 107.132 214.509C106.589 214.077 106.237 213.626 106 212.964C105.565 211.753 105.57 209.987 105.448 208.69C105.273 206.844 105.083 204.999 104.879 203.156Z" fill="#FEFEFE"/>
<path d="M138.924 185.263L160.329 185.28L168.715 185.251C170.26 185.252 171.815 185.216 173.357 185.299C172.818 186.228 172.084 187.088 171.44 187.947C170.279 189.487 169.142 191.044 168.029 192.617L172.77 199.278L100.905 199.237L66.6755 199.282C67.2335 198.588 67.7187 197.815 68.2452 197.093L71.6784 192.436C70.1636 190.072 68.0683 187.599 66.377 185.288C69.1131 185.234 71.859 185.272 74.5959 185.271L90.5929 185.277L138.924 185.263Z" fill="#9ABD2D"/>
<path d="M76.769 145.016C78.1148 144.556 83.7548 142.767 84.4366 142.249C84.9907 141.829 86.6798 138.973 87.3109 138.122C88.414 136.636 89.6045 135.223 90.8825 133.884C93.8671 130.811 98.3329 127.38 102.068 125.258C106.052 122.995 110.993 121.067 115.41 119.893C116.705 119.549 118.765 118.835 120.051 118.878C120.92 118.906 121.842 119.204 122.682 119.419C126.585 120.419 130.52 121.749 134.143 123.523C140.247 126.513 147.055 131.549 151.377 136.845C152.236 137.91 153.054 139.006 153.832 140.133C154.296 140.817 154.715 141.56 155.224 142.21C157.923 143.155 160.74 143.879 163.379 144.975C163.313 157.143 163.314 169.31 163.383 181.478L143.325 181.499C142.801 181.567 142.233 181.577 141.708 181.518L140.175 181.484C136.617 181.354 133.024 181.475 129.461 181.475L113.801 181.403L103.565 181.432C102.241 181.446 100.865 181.315 99.5491 181.462C98.6085 181.482 97.6677 181.492 96.7269 181.492C90.0796 181.578 83.4219 181.509 76.7737 181.5L76.7652 156.428C76.7636 152.626 76.8198 148.817 76.769 145.016Z" fill="#FDBD27"/>
<path d="M118.508 132.831C118.573 131.051 118.749 129.184 120.052 127.838C121.103 126.752 122.987 126.113 124.479 126.134C124.864 126.139 125.278 126.219 125.55 126.514C125.743 126.724 125.786 127.037 125.759 127.312C125.66 128.327 124.288 128.022 123.569 128.125C122.874 128.226 122.133 128.497 121.591 128.948C120.489 129.864 120.41 131.388 120.316 132.708L120.245 134.555C120.146 135.215 120.364 135.944 119.909 136.52C119.788 136.673 119.63 136.78 119.428 136.776C119.241 136.772 119.054 136.65 118.926 136.52C118.264 135.848 118.511 133.759 118.508 132.831Z" fill="#FEFEFE"/>
<path d="M78.8719 160.08C80.4505 161.264 81.869 162.685 83.3 164.039C87.28 167.803 90.965 171.789 94.6403 175.845C95.4755 176.76 96.2972 177.687 97.1053 178.626C97.5865 179.19 99.0445 181.16 99.5491 181.462C98.6085 181.482 97.6678 181.492 96.727 181.492C94.7447 179.432 92.9061 177.055 90.6483 175.296C88.1144 173.322 85.3519 171.686 82.7298 169.847C82.5397 169.714 82.2898 169.548 82.1632 169.352C81.7331 168.687 81.5088 167.733 81.233 166.986C80.3866 164.691 79.5755 162.423 78.8719 160.08Z" fill="#E31C16"/>
<path d="M146.395 174.572C146.145 173.671 145.748 172.643 146.232 171.759C147.015 170.326 148.369 168.727 149.33 167.364L153.442 161.597C154.13 160.644 154.787 159.654 155.521 158.737C155.808 158.379 156.344 157.692 156.778 157.519C157.436 157.255 158.303 157.667 158.857 158.009C159.612 158.476 160.576 159.1 160.808 160.011C160.982 160.696 160.613 161.374 160.257 161.939C159.579 163.013 158.783 164.029 158.043 165.063L153.945 170.75C153.38 171.513 152.823 172.281 152.272 173.054C151.869 173.629 151.485 174.269 151.007 174.785C150.635 175.188 150.271 175.476 149.723 175.586C149.245 175.681 148.713 175.638 148.231 175.573C146.605 176.815 144.64 179.778 143.325 181.499C142.801 181.567 142.233 181.577 141.708 181.518C142.699 180.322 145.976 175.897 146.395 174.572Z" fill="#E31C16"/>
<path d="M120.316 132.708C121.49 132.769 122.65 132.838 123.809 133.048C124.115 133.106 124.42 133.17 124.724 133.24C125.028 133.31 125.33 133.386 125.631 133.468C125.932 133.55 126.23 133.638 126.528 133.733C126.825 133.827 127.12 133.927 127.413 134.033C127.706 134.138 127.997 134.25 128.286 134.368C128.575 134.486 128.861 134.609 129.144 134.738C129.428 134.867 129.709 135.002 129.988 135.142C130.266 135.282 130.541 135.428 130.814 135.579C131.086 135.731 131.356 135.888 131.622 136.05C131.888 136.212 132.151 136.379 132.411 136.552C132.67 136.725 132.926 136.902 133.179 137.085C133.431 137.268 133.679 137.456 133.924 137.649C134.169 137.842 134.41 138.039 134.647 138.242C134.884 138.444 135.117 138.652 135.346 138.864C135.574 139.075 135.799 139.292 136.019 139.513C136.239 139.733 136.454 139.958 136.665 140.188C136.795 140.335 136.924 140.483 137.051 140.633C137.178 140.783 137.303 140.934 137.426 141.087C137.55 141.24 137.671 141.394 137.79 141.55C137.91 141.706 138.028 141.863 138.143 142.022C138.259 142.18 138.373 142.34 138.485 142.501C138.597 142.663 138.707 142.825 138.815 142.989C138.923 143.153 139.029 143.319 139.133 143.485C139.237 143.652 139.339 143.82 139.439 143.989C139.539 144.158 139.637 144.328 139.732 144.499C139.828 144.67 139.922 144.843 140.014 145.017C140.106 145.19 140.195 145.365 140.283 145.541C140.37 145.716 140.456 145.893 140.539 146.071C140.622 146.249 140.703 146.428 140.782 146.607C140.861 146.787 140.938 146.968 141.013 147.149C141.088 147.331 141.16 147.514 141.23 147.697C141.3 147.88 141.368 148.064 141.434 148.25C141.5 148.434 141.564 148.62 141.625 148.807C141.686 148.993 141.745 149.181 141.802 149.369C141.859 149.556 141.914 149.745 141.966 149.934C142.018 150.124 142.068 150.313 142.116 150.504C142.164 150.694 142.209 150.885 142.252 151.077C142.295 151.269 142.336 151.461 142.375 151.653C142.413 151.846 142.449 152.039 142.483 152.232C142.517 152.425 142.549 152.619 142.578 152.813C142.607 153.008 142.634 153.202 142.659 153.397C142.683 153.592 142.705 153.787 142.725 153.982C142.745 154.177 142.762 154.373 142.778 154.569C142.793 154.765 142.805 154.961 142.816 155.157C142.826 155.353 142.834 155.549 142.84 155.745C142.846 155.941 142.849 156.138 142.85 156.334C142.851 156.531 142.85 156.727 142.846 156.923C142.842 157.119 142.836 157.316 142.828 157.512L142.824 157.584C144.151 157.956 145.209 158.544 145.911 159.774C146.531 160.858 146.721 162.302 146.364 163.502C145.994 164.742 144.971 165.819 143.833 166.402C143.387 166.631 142.902 166.783 142.413 166.89C141.612 171.747 141.024 176.631 140.175 181.484C136.617 181.354 133.024 181.475 129.461 181.475L113.801 181.403L103.565 181.432C102.241 181.446 100.865 181.315 99.5491 181.463C99.615 180.554 99.2823 179.242 99.1509 178.314C98.8268 176.023 98.4717 173.736 98.0856 171.455C97.8386 169.928 97.6399 168.358 97.2437 166.863C96.9243 166.767 96.6028 166.658 96.2951 166.529C95.1525 166.048 94.2077 165.139 93.7407 163.985C93.2951 162.885 93.3177 161.518 93.8039 160.434C94.3628 159.187 95.3776 158.393 96.6356 157.929C96.5999 157.068 96.6008 156.208 96.6383 155.347C96.6478 155.156 96.6597 154.965 96.6739 154.774C96.688 154.584 96.7045 154.393 96.7234 154.203C96.7422 154.012 96.7634 153.822 96.7868 153.632C96.8102 153.442 96.836 153.252 96.864 153.063C96.892 152.874 96.9224 152.685 96.9551 152.496C96.9877 152.308 97.0226 152.12 97.0598 151.932C97.097 151.744 97.1365 151.557 97.1782 151.37C97.22 151.184 97.264 150.997 97.3103 150.812C97.3566 150.626 97.4051 150.441 97.4558 150.256C97.5066 150.072 97.5596 149.888 97.6149 149.705C97.6701 149.522 97.7276 149.339 97.7873 149.157C97.8469 148.975 97.9088 148.794 97.9729 148.614C98.0369 148.434 98.1032 148.254 98.1715 148.076C98.24 147.897 98.3106 147.719 98.3833 147.542C98.4561 147.365 98.531 147.189 98.608 147.014C98.685 146.839 98.7641 146.664 98.8455 146.491C98.9267 146.318 99.01 146.146 99.0954 145.974C99.1808 145.803 99.2684 145.633 99.358 145.464C99.4476 145.295 99.5392 145.127 99.6328 144.96C99.7265 144.793 99.8221 144.627 99.9198 144.463C100.017 144.298 100.117 144.135 100.219 143.973C100.32 143.811 100.424 143.65 100.53 143.49C100.635 143.33 100.743 143.172 100.852 143.015C100.961 142.858 101.073 142.702 101.186 142.548C101.299 142.394 101.414 142.241 101.531 142.09C101.648 141.938 101.767 141.788 101.887 141.639C102.008 141.491 102.13 141.343 102.254 141.198C102.378 141.052 102.504 140.908 102.632 140.765C102.759 140.623 102.889 140.482 103.02 140.342C103.151 140.203 103.283 140.065 103.418 139.929C103.552 139.793 103.688 139.658 103.826 139.525C103.963 139.392 104.103 139.261 104.244 139.131C107.573 136.117 111.561 133.977 115.993 133.148C116.764 133.004 117.672 132.793 118.453 132.833L118.508 132.831C118.511 133.759 118.264 135.848 118.926 136.52C119.054 136.65 119.241 136.772 119.428 136.776C119.63 136.78 119.788 136.673 119.909 136.521C120.364 135.944 120.146 135.216 120.245 134.556L120.316 132.708Z" fill="#E31C16"/>
<path d="M117.171 159.482L134.215 159.473C135.731 159.471 137.247 159.494 138.762 159.473C139.767 159.459 140.86 159.355 141.856 159.462C142.512 159.533 143.138 159.749 143.621 160.214C144.188 160.76 144.527 161.474 144.537 162.263C144.547 162.944 144.254 163.54 143.78 164.021C143.355 164.453 142.887 164.671 142.294 164.767C141.466 164.901 140.599 164.859 139.762 164.861L136.065 164.865L123.024 164.873L105.396 164.877C103.849 164.872 102.302 164.876 100.755 164.888C99.8004 164.897 98.7885 164.971 97.8397 164.871C97.2659 164.81 96.6459 164.594 96.214 164.199C95.7148 163.743 95.3926 162.974 95.369 162.303C95.3426 161.554 95.6637 160.808 96.1878 160.279C96.565 159.899 97.032 159.639 97.5635 159.557C98.3828 159.431 99.2549 159.482 100.082 159.482L103.971 159.485L117.171 159.482Z" fill="#FEFEFE"/>
<path d="M99.6496 166.803C104.978 166.717 110.32 166.786 115.65 166.779C123.892 166.742 132.134 166.758 140.376 166.828C140.272 168.247 139.957 169.691 139.77 171.106C139.528 172.933 139.39 174.927 139.013 176.712C138.37 177.439 137.549 177.961 136.722 178.452C136.321 178.684 135.892 178.893 135.465 179.075C133.879 179.75 132.203 180.05 130.483 180.062C125.838 180.094 121.995 178.016 117.811 176.335C113.477 174.594 108.49 173.52 103.88 174.735C102.795 175.021 101.77 175.482 100.741 175.922C100.596 174.871 99.3359 167.123 99.4541 166.858L99.6496 166.803Z" fill="#FEFEFE"/>
<path d="M118.453 132.832L118.508 132.831C118.511 133.759 118.264 135.848 118.926 136.52C119.054 136.65 119.241 136.772 119.428 136.776C119.63 136.78 119.788 136.673 119.909 136.52C120.364 135.944 120.146 135.215 120.245 134.555C120.498 134.675 122.723 134.817 123.27 134.919C123.526 134.968 123.782 135.021 124.036 135.079C124.291 135.138 124.544 135.201 124.796 135.268C125.048 135.336 125.299 135.408 125.548 135.485C125.798 135.561 126.046 135.643 126.292 135.729C126.539 135.815 126.784 135.905 127.027 136C127.27 136.095 127.511 136.194 127.751 136.298C127.99 136.402 128.228 136.51 128.463 136.623C128.699 136.735 128.932 136.852 129.164 136.973C129.395 137.094 129.624 137.22 129.85 137.349C130.077 137.479 130.301 137.612 130.523 137.75C130.744 137.888 130.963 138.03 131.18 138.176C131.396 138.321 131.61 138.471 131.821 138.625C132.032 138.779 132.24 138.936 132.445 139.098C132.65 139.259 132.853 139.424 133.052 139.593C133.251 139.762 133.447 139.934 133.639 140.11C133.832 140.286 134.022 140.466 134.208 140.649C139.029 145.318 140.865 151.002 140.973 157.548L98.4842 157.619C98.4908 155.935 98.5684 154.292 98.8718 152.632C99.4683 149.37 101.024 145.856 103.068 143.261C106.937 138.348 112.27 135.469 118.458 134.748C118.445 134.11 118.453 133.471 118.453 132.832Z" fill="#EE5720"/>
<path d="M113.239 142.586C113.374 142.726 113.486 143.01 113.608 143.184C113.864 143.326 114.228 143.251 114.512 143.232C114.266 143.439 114.022 143.647 113.779 143.856C113.944 144.209 114.083 144.579 114.232 144.939C113.981 144.767 113.733 144.591 113.486 144.413L113.356 144.362C113.065 144.437 112.827 144.708 112.607 144.904L112.746 143.815L111.954 143.257C112.266 143.267 112.592 143.308 112.892 143.21C113.109 143.056 113.156 142.826 113.239 142.586Z" fill="#FDBD27"/>
<path d="M124.855 152.376C125.091 152.533 125.17 152.943 125.259 153.204L126.134 153.211L125.499 153.753C125.627 154.074 125.714 154.411 125.81 154.742C125.565 154.578 125.318 154.416 125.069 154.257C124.876 154.383 124.698 154.513 124.473 154.576C124.293 153.781 124.339 153.726 123.754 153.151C124.02 153.18 124.297 153.24 124.551 153.139C124.746 152.94 124.787 152.639 124.855 152.376Z" fill="#FDBD27"/>
<path d="M130.788 147.319C131.033 147.471 131.093 147.845 131.176 148.109C131.56 148.106 131.93 148.045 132.308 147.988C131.98 148.221 131.673 148.466 131.368 148.728C131.493 149.016 131.571 149.33 131.661 149.632L130.952 149.129C130.557 149.247 130.224 149.506 129.884 149.734C130.029 149.376 130.19 149.024 130.345 148.67L129.52 148.092C129.818 148.098 130.14 148.135 130.423 148.03C130.641 147.847 130.699 147.579 130.788 147.319Z" fill="#FDBD27"/>
<path d="M124.975 142.64C125.141 142.787 125.209 143.037 125.391 143.183C125.607 143.357 126.053 143.283 126.319 143.271L125.671 143.854C125.717 144.164 125.765 144.475 125.815 144.784C125.567 144.645 125.27 144.398 124.987 144.42L124.241 144.917C124.347 144.542 124.439 144.161 124.536 143.784L123.567 143.27C123.885 143.257 124.287 143.342 124.587 143.226C124.819 143.135 124.891 142.852 124.975 142.64Z" fill="#FDBD27"/>
<path d="M113.253 152.452C113.352 152.532 113.338 152.504 113.39 152.591C113.495 152.765 113.593 152.915 113.72 153.075C113.98 153.226 114.374 153.161 114.669 153.152C114.429 153.409 114.159 153.633 113.894 153.863L114.234 154.811L113.431 154.297C113.141 154.383 112.876 154.609 112.627 154.78L112.852 153.853C112.569 153.583 112.252 153.363 111.935 153.134C112.26 153.152 112.705 153.274 113.002 153.132C113.199 152.937 113.208 152.715 113.253 152.452Z" fill="#FDBD27"/>
<path d="M119.199 147.473C119.395 147.636 119.481 148.036 119.567 148.275L120.618 148.22C120.301 148.436 119.996 148.666 119.689 148.896L120.053 149.823C119.784 149.661 119.5 149.519 119.223 149.372C118.92 149.456 118.621 149.628 118.336 149.763L118.668 148.838C118.386 148.614 118.081 148.415 117.785 148.21L118.862 148.243L119.199 147.473Z" fill="#FDBD27"/>
<path d="M107.188 147.335C107.391 147.527 107.484 147.914 107.579 148.172L108.62 148.149L107.776 148.764L108.028 149.724C107.705 149.574 107.432 149.393 107.143 149.187C106.915 149.277 106.608 149.595 106.403 149.749L106.631 148.756L105.884 148.15L106.848 148.177C106.945 147.891 107.071 147.614 107.188 147.335Z" fill="#FDBD27"/>
</g>
<defs>
<filter id="filter0_d_148061_57" x="-14.089" y="-9.68652" width="268" height="268" filterUnits="userSpaceOnUse" color-interpolation-filters="sRGB">
<feFlood flood-opacity="0" result="BackgroundImageFix"/>
<feColorMatrix in="SourceAlpha" type="matrix" values="0 0 0 0 0 0 0 0 0 0 0 0 0 0 0 0 0 0 127 0" result="hardAlpha"/>
<feOffset dy="-50"/>
<feGaussianBlur stdDeviation="29.5"/>
<feComposite in2="hardAlpha" operator="out"/>
<feColorMatrix type="matrix" values="0 0 0 0 0.996078 0 0 0 0 0.54902 0 0 0 0 0 0 0 0 0.27 0"/>
<feBlend mode="normal" in2="BackgroundImageFix" result="effect1_dropShadow_148061_57"/>
<feBlend mode="normal" in="SourceGraphic" in2="effect1_dropShadow_148061_57" result="shape"/>
</filter>
</defs>
</svg>
